<?xml version="1.0" encoding="UTF-8"?>
<svg width="76px" height="77px" viewBox="0 0 76 77" version="1.1" xmlns="http://www.w3.org/2000/svg" xmlns:xlink="http://www.w3.org/1999/xlink">
    <!-- Generator: Sketch 50.2 (55047) - http://www.bohemiancoding.com/sketch -->
    <title>noun_947006_cc</title>
    <desc>Created with Sketch.</desc>
    <defs></defs>
    <g id="Page-1" stroke="none" stroke-width="1" fill="none" fill-rule="evenodd">
        <g id="Register-2" transform="translate(-987.000000, -1241.000000)" fill="#1C67A2" fill-rule="nonzero">
            <g id="noun_947006_cc" transform="translate(987.000000, 1241.000000)">
                <g id="Group">
                    <path d="M42.7047619,15.8476744 L53.3809524,15.8476744 C53.8333333,15.8476744 54.2857143,15.4895349 54.2857143,14.9523256 C54.2857143,14.5046512 53.9238095,14.0569767 53.3809524,14.0569767 L42.7047619,14.0569767 C42.252381,14.0569767 41.8,14.4151163 41.8,14.9523256 C41.8904762,15.4 42.252381,15.8476744 42.7047619,15.8476744 Z" id="Shape"></path>
                    <path d="M22.6190476,25.1593023 L53.3809524,25.1593023 C53.8333333,25.1593023 54.2857143,24.8011628 54.2857143,24.2639535 C54.2857143,23.7267442 53.9238095,23.3686047 53.3809524,23.3686047 L22.6190476,23.3686047 C22.1666667,23.3686047 21.7142857,23.7267442 21.7142857,24.2639535 C21.7142857,24.8011628 22.1666667,25.1593023 22.6190476,25.1593023 Z" id="Shape"></path>
                    <path d="M22.6190476,34.5604651 L53.3809524,34.5604651 C53.8333333,34.5604651 54.2857143,34.2023256 54.2857143,33.6651163 C54.2857143,33.127907 53.9238095,32.7697674 53.3809524,32.7697674 L22.6190476,32.7697674 C22.1666667,32.7697674 21.7142857,33.127907 21.7142857,33.6651163 C21.7142857,34.2023256 22.1666667,34.5604651 22.6190476,34.5604651 Z" id="Shape"></path>
                    <path d="M75.0952381,29.8151163 L63.7857143,25.1593023 L63.7857143,1.34302326 C63.7857143,0.895348837 63.4238095,0.447674419 62.8809524,0.447674419 L13.1190476,0.447674419 C12.6666667,0.447674419 12.2142857,0.805813953 12.2142857,1.34302326 L12.2142857,25.1593023 L0.904761905,29.8151163 C0.542857143,29.9046512 0.361904762,30.2627907 0.361904762,30.6209302 L0.361904762,75.7465116 C0.361904762,76.194186 0.723809524,76.6418605 1.26666667,76.6418605 L74.7333333,76.6418605 C75.1857143,76.6418605 75.6380952,76.2837209 75.6380952,75.7465116 L75.6380952,30.6209302 C75.547619,30.2627907 75.3666667,29.994186 75.0952381,29.8151163 Z M72.8333333,30.7104651 L63.7857143,36.172093 L63.7857143,26.95 L72.8333333,30.7104651 Z M61.9761905,2.14883721 L61.9761905,37.1569767 L38,51.572093 L14.0238095,37.2465116 L14.0238095,2.14883721 L61.9761905,2.14883721 Z M12.2142857,36.172093 L3.16666667,30.7104651 L12.2142857,26.95 L12.2142857,36.172093 Z M2.17142857,74.8511628 L2.17142857,32.1430233 L37.547619,53.2732558 C37.7285714,53.3627907 37.8190476,53.3627907 38,53.3627907 C38.1809524,53.3627907 38.2714286,53.3627907 38.452381,53.2732558 L73.8285714,32.1430233 L73.8285714,74.8511628 L2.17142857,74.8511628 Z" id="Shape"></path>
                </g>
            </g>
        </g>
    </g>
</svg>