<?xml version="1.0" encoding="UTF-8"?>
<svg width="87px" height="95px" viewBox="0 0 87 95" version="1.1" xmlns="http://www.w3.org/2000/svg" xmlns:xlink="http://www.w3.org/1999/xlink">
    <!-- Generator: Sketch 50.2 (55047) - http://www.bohemiancoding.com/sketch -->
    <title>Group 4</title>
    <desc>Created with Sketch.</desc>
    <defs></defs>
    <g id="Page-1" stroke="none" stroke-width="1" fill="none" fill-rule="evenodd">
        <g id="Register-2" transform="translate(-689.000000, -1224.000000)" fill="#1C67A2" fill-rule="nonzero" stroke="#1C67A2">
            <g id="Group-4" transform="translate(690.000000, 1224.000000)">
                <path d="M69.880531,58.5056 C69.8053097,58.8064 70.0309735,59.1072 70.3318584,59.1824 L78.6814159,60.912 C78.7566372,60.912 78.7566372,60.912 78.8318584,60.912 C79.0575221,60.912 79.3584071,60.7616 79.3584071,60.4608 C79.4336283,60.16 79.2079646,59.8592 78.9070796,59.784 L70.5575221,58.0544 C70.2566372,58.0544 69.9557522,58.2048 69.880531,58.5056 Z" id="Shape"></path>
                <path d="M42.5,15.9424 C42.800885,15.9424 43.1017699,15.7168 43.1017699,15.3408 L43.1017699,1.2032 C43.1017699,0.9024 42.8761062,0.6016 42.5,0.6016 C42.199115,0.6016 41.8982301,0.8272 41.8982301,1.2032 L41.8982301,15.3408 C41.8982301,15.6416 42.199115,15.9424 42.5,15.9424 Z" id="Shape"></path>
                <path d="M24.7477876,20.3792 C24.8230088,20.5296 25.0486726,20.68 25.199115,20.68 C25.2743363,20.68 25.4247788,20.68 25.5,20.6048 C25.800885,20.4544 25.8761062,20.0784 25.7256637,19.8528 L18.5044248,7.6704 C18.3539823,7.3696 17.9778761,7.2944 17.7522124,7.4448 C17.4513274,7.5952 17.3761062,7.9712 17.5265487,8.1968 L24.7477876,20.3792 Z" id="Shape"></path>
                <path d="M12.9380531,33.1632 C13.1637168,33.1632 13.3141593,33.088 13.4646018,32.8624 C13.6150442,32.5616 13.539823,32.2608 13.2389381,32.1104 L0.902654867,25.1168 C0.601769912,24.9664 0.300884956,25.0416 0.150442478,25.3424 C2.73878142e-13,25.6432 0.0752212389,25.944 0.376106195,26.0944 L12.6371681,33.088 C12.7123894,33.088 12.8628319,33.1632 12.9380531,33.1632 Z" id="Shape"></path>
                <path d="M18.5044248,66.1008 C18.3539823,65.8 17.9778761,65.7248 17.7522124,65.8752 L5.49115044,73.0192 C5.19026549,73.1696 5.11504425,73.5456 5.26548673,73.7712 C5.34070796,73.9216 5.56637168,74.072 5.7920354,74.072 C5.86725664,74.072 6.01769912,74.072 6.09292035,73.9968 L18.2787611,66.928 C18.579646,66.7776 18.6548673,66.4016 18.5044248,66.1008 Z" id="Shape"></path>
                <path d="M79.4336283,73.0944 L67.2477876,65.9504 C66.9469027,65.8 66.6460177,65.8752 66.4955752,66.176 C66.3451327,66.4768 66.420354,66.7776 66.7212389,66.928 L78.9070796,74.072 C78.9823009,74.1472 79.1327434,74.1472 79.2079646,74.1472 C79.4336283,74.1472 79.5840708,74.072 79.7345133,73.8464 C79.8097345,73.6208 79.7345133,73.2448 79.4336283,73.0944 Z" id="Shape"></path>
                <path d="M84.0973451,25.192 L71.7610619,32.1104 C71.460177,32.2608 71.3849558,32.6368 71.5353982,32.8624 C71.6106195,33.0128 71.8362832,33.1632 72.0619469,33.1632 C72.1371681,33.1632 72.2876106,33.1632 72.3628319,33.088 L84.699115,26.1696 C85,26.0192 85.0752212,25.6432 84.9247788,25.4176 C84.7743363,25.1168 84.3982301,25.0416 84.0973451,25.192 Z" id="Shape"></path>
                <path d="M59.5752212,20.6048 C59.6504425,20.68 59.800885,20.68 59.8761062,20.68 C60.1017699,20.68 60.2522124,20.6048 60.3274336,20.3792 L67.5486726,8.1968 C67.699115,7.896 67.6238938,7.5952 67.3230088,7.4448 C67.0221239,7.2944 66.7212389,7.3696 66.5707965,7.6704 L59.3495575,19.8528 C59.199115,20.0784 59.2743363,20.4544 59.5752212,20.6048 Z" id="Shape"></path>
                <path d="M33.9247788,16.3184 C34,16.544 34.2256637,16.6944 34.4513274,16.6944 C34.5265487,16.6944 34.6017699,16.6944 34.6017699,16.6944 C34.9026549,16.6192 35.0530973,16.3184 34.9778761,16.0176 L32.420354,7.896 C32.3451327,7.5952 32.0442478,7.4448 31.7433628,7.52 C31.4424779,7.5952 31.2920354,7.896 31.3672566,8.1968 L33.9247788,16.3184 Z" id="Shape"></path>
                <path d="M18.5044248,25.0416 C18.579646,25.1168 18.7300885,25.192 18.880531,25.192 C19.0309735,25.192 19.1814159,25.1168 19.3318584,25.0416 C19.5575221,24.816 19.5575221,24.44 19.3318584,24.2144 L13.0884956,18.4992 C12.8628319,18.2736 12.4867257,18.2736 12.2610619,18.4992 C12.0353982,18.7248 12.0353982,19.1008 12.2610619,19.3264 L18.5044248,25.0416 Z" id="Shape"></path>
                <path d="M5.56637168,60.2352 C5.64159292,60.4608 5.86725664,60.6112 6.09292035,60.6112 C6.16814159,60.6112 6.24336283,60.6112 6.24336283,60.6112 L14.3672566,58.0544 C14.6681416,57.9792 14.8185841,57.6784 14.7433628,57.3776 C14.6681416,57.0768 14.2920354,56.9264 14.0663717,57.0016 L5.94247788,59.5584 C5.64159292,59.6336 5.49115044,59.9344 5.56637168,60.2352 Z" id="Shape"></path>
                <path d="M23.1681416,72.568 C22.9424779,72.3424 22.5663717,72.3424 22.340708,72.6432 L16.6238938,78.96 C16.3982301,79.1856 16.3982301,79.5616 16.699115,79.7872 C16.7743363,79.8624 16.9247788,79.9376 17.0752212,79.9376 C17.2256637,79.9376 17.3761062,79.8624 17.5265487,79.7872 L23.2433628,73.4704 C23.3938053,73.1696 23.3938053,72.7936 23.1681416,72.568 Z" id="Shape"></path>
                <path d="M60.9292035,73.4704 C60.7035398,73.696 60.7035398,74.072 61.0044248,74.2976 L67.3230088,80.0128 C67.3982301,80.088 67.5486726,80.1632 67.699115,80.1632 C67.8495575,80.1632 68,80.088 68.1504425,80.0128 C68.3761062,79.7872 68.3761062,79.4112 68.0752212,79.1856 L61.7566372,73.4704 C61.5309735,73.2448 61.1548673,73.2448 60.9292035,73.4704 Z" id="Shape"></path>
                <path d="M72.2123894,18.8 L66.5707965,25.1168 C66.3451327,25.3424 66.3451327,25.7184 66.6460177,25.944 C66.7212389,26.0192 66.8716814,26.0944 67.0221239,26.0944 C67.1725664,26.0944 67.3230088,26.0192 67.4734513,25.8688 L73.1150442,19.552 C73.340708,19.3264 73.340708,18.9504 73.039823,18.7248 C72.7389381,18.4992 72.3628319,18.5744 72.2123894,18.8 Z" id="Shape"></path>
                <path d="M51.6017699,16.9952 C51.6769912,16.9952 51.6769912,16.9952 51.7522124,16.9952 C51.9778761,16.9952 52.2787611,16.8448 52.2787611,16.544 L54.0088496,8.272 C54.0840708,7.9712 53.8584071,7.6704 53.5575221,7.5952 C53.2566372,7.52 52.9557522,7.7456 52.880531,8.0464 L51.1504425,16.3184 C51.0752212,16.6192 51.300885,16.92 51.6017699,16.9952 Z" id="Shape"></path>
                <path d="M66.2808093,48.3545914 L66.343061,48.3118151 L76.0053385,44.0122337 C76.0276617,44.0047948 76.0497788,43.9605731 76.0497788,43.8416 C76.0497788,43.7687302 75.9886145,43.6668185 75.9713795,43.6577849 L66.327908,39.3642291 C66.2830176,39.3417903 66.3320266,39.3417903 66.2871362,39.3642291 L66.119469,39.4038 C66.0724558,39.4038 66.0724558,39.4038 66.0442478,39.4038 C66.0160398,39.4038 66.0160398,39.4038 65.9690265,39.4038 L54.9126106,39.4038 L54.9126106,38.1264 C54.9126106,36.6039305 53.7265452,35.4182 52.2035398,35.4182 L51.7522124,35.4182 C51.1119931,35.4182 50.4415508,35.6718092 49.965246,36.0799553 L49.4555465,36.5167172 L49.3508304,35.8537021 C49.1517085,34.5929533 48.0931239,33.6886 46.7876106,33.6886 L46.1106195,33.6886 C45.3379002,33.6886 44.681137,34.0004745 44.1342259,34.6155757 L43.7780293,35.0161837 L43.5238266,34.5442264 C43.047415,33.6597118 42.1049457,33.087 41.0707965,33.087 L40.7699115,33.087 C39.9171237,33.087 39.1181623,33.477493 38.5804041,34.149501 L38.2262476,34.5920717 L37.9574549,34.0930264 C37.5007525,33.2451041 36.5796232,32.711 35.579646,32.711 L35.2787611,32.711 C33.7557556,32.711 32.494469,33.9719305 32.494469,35.4944 L32.494469,36.9974 L32.119469,36.9974 C32.0552662,36.9974 31.9991337,37.0067528 31.9263116,37.0285932 C31.8786125,37.0428989 31.6725809,37.1164609 31.6362544,37.1285663 L31.5176991,37.1478 C31.5666477,37.1478 31.5744233,37.144885 31.5725345,37.1458291 C31.4950288,37.184571 31.4433996,37.2068456 31.3812567,37.2167532 C31.1333212,37.3215824 30.9408677,37.4481114 30.5792869,37.7148025 C30.5509763,37.7431051 30.5387168,37.7594464 30.5387168,37.6752 L30.5387168,37.8067719 L30.4565103,37.909501 C30.2027817,38.2265723 29.9984765,38.690771 29.9318418,39.0904666 L29.8796048,39.4038 L15.3451327,39.4038 C12.8442512,39.4038 10.8307522,41.4167305 10.8307522,43.9168 C10.8307522,46.4168695 12.8442512,48.4298 15.3451327,48.4298 L30.0873894,48.4298 L30.0873894,54.2944 C30.0873894,57.4622393 31.8889352,60.4167496 34.6976292,61.8566988 L34.8834848,61.9519825 L34.9003274,62.1601594 C35.7293894,72.4074869 35.7293894,82.8805131 34.8986513,93.144126 L34.8761356,93.3242 L50.72588,93.3242 L50.7014426,93.1278406 C49.8723835,82.8805495 49.8723835,72.4827974 50.7014249,62.1603787 L50.7166272,61.9710937 L50.8782017,61.8713259 C53.3294791,60.3577291 54.9126106,57.6184674 54.9126106,54.896 L54.9126106,48.4298 L65.5940265,48.4298 L65.5940265,48.3546 L65.9690265,48.3546 C66.0160398,48.3546 66.0160398,48.3546 66.0442478,48.3546 C66.0724558,48.3546 66.0724558,48.3546 66.119469,48.3546 C66.1664823,48.3546 66.1664823,48.3546 66.1946903,48.3546 C66.2228982,48.3546 66.2228982,48.3546 66.2699115,48.3546 C66.2741009,48.3546 66.2777196,48.3545937 66.2808093,48.3545914 Z M66.1957965,48.0325999 L66.1957965,39.7307828 L75.4614927,43.8379976 L66.1957965,48.0325999 Z M65.8174779,39.7818 L65.8174779,47.9766 L54.9126106,47.9766 L54.9126106,39.7818 L65.8174779,39.7818 Z M51.8274336,35.7962 L52.2787611,35.7962 C53.5389415,35.7962 54.6095133,36.8664695 54.6095133,38.1264 L54.6095133,42.5632 C54.6095133,43.8231305 53.5389415,44.8934 52.2787611,44.8934 L51.8274336,44.8934 C50.5672532,44.8934 49.4966814,43.8231305 49.4966814,42.5632 L49.4966814,38.1264 C49.4966814,36.8422537 50.5154951,35.7962 51.8274336,35.7962 Z M44.0391279,35.8714 C44.2220211,34.8589678 45.1284388,34.0666 46.1858407,34.0666 L46.8628319,34.0666 C48.047791,34.0666 49.0431416,35.0616695 49.0431416,36.2464 L49.0431416,42.5632 C49.0431416,43.8231305 47.9725698,44.8934 46.7123894,44.8934 L46.2610619,44.8934 C45.0008815,44.8934 43.9303097,43.8231305 43.9303097,42.5632 L43.9303097,35.8714 L44.0391279,35.8714 Z M40.920354,33.3898 L41.2212389,33.3898 C42.5566406,33.3898 43.6272124,34.4600695 43.6272124,35.7952 L43.6272124,42.4128 C43.6272124,43.8231305 42.4814194,44.9686 41.0707965,44.9686 C40.019208,44.9686 39.0452552,44.2767764 38.6874121,43.2929856 L38.5043838,42.7898 L39.4159292,42.7898 C40.9389346,42.7898 42.2002212,41.5288695 42.2002212,40.0064 L42.2002212,39.7056 C42.2002212,38.1831305 40.9389346,36.9222 39.4159292,36.9222 L38.5143805,36.9222 L38.5143805,35.8704 C38.5143805,34.5248877 39.594403,33.3898 40.920354,33.3898 Z M35.9568584,42.7898 L38.1517983,42.7898 L37.9617307,43.2965039 C37.6980269,43.9995153 37.1666731,44.5307191 36.4634971,44.7943357 L35.9568584,44.9842715 L35.9568584,42.7898 Z M33.0232301,35.4944 C33.0232301,34.1592695 34.0938019,33.089 35.4292035,33.089 L35.7300885,33.089 C37.0654902,33.089 38.1360619,34.1592695 38.1360619,35.4944 L38.1360619,36.9222 L33.0232301,36.9222 L33.0232301,35.4944 Z M11.2090708,43.8416 C11.2090708,41.5791078 13.0564494,39.7066 15.3451327,39.7066 L20.0077434,39.7066 L20.0077434,47.9014 L19.6327434,47.9014 L15.3585133,47.9011612 C13.0495062,47.9836025 11.2090708,46.1692411 11.2090708,43.8416 Z M20.3860619,48.0518 L20.3860619,39.7818 L30.0121681,39.7818 L30.0121681,48.0518 L20.3860619,48.0518 Z M50.3151669,61.8377534 C49.5043959,71.9042387 49.4873642,82.1584294 50.2456712,92.468493 L50.2752757,92.871 L35.1758324,92.871 L35.2056712,92.4682903 C35.965694,82.2108792 35.9468298,71.93279 35.1306461,61.8446406 L35.1486786,61.6957844 C35.1583764,61.6666992 35.1141584,61.5782882 35.0434494,61.5519107 C32.2121097,60.2152667 30.3904867,57.3059346 30.3904867,54.144 L30.3904867,39.4048 C30.3904867,38.9858844 30.5384189,38.5594601 30.7920502,38.1955043 C30.8265883,38.0975059 30.8940459,38.0224634 30.9806343,37.964754 C31.0289456,37.9339868 31.0302531,37.9333236 31.0280962,37.9352961 C31.2275719,37.7360721 31.5043398,37.5601116 31.77525,37.4698337 L31.8131676,37.4636822 C31.799163,37.4692805 31.7877796,37.4765406 31.7791202,37.4851975 L31.8142171,37.4635119 L31.8938053,37.4506 C31.8623022,37.4506 31.8360175,37.4549592 31.8152683,37.4628624 L31.9256925,37.3946337 C32.164354,37.3151024 32.3432328,37.3002 32.7212389,37.3002 L39.4159292,37.3002 C40.7513309,37.3002 41.8219027,38.3704695 41.8219027,39.7056 L41.8219027,40.0064 C41.8219027,41.3415305 40.7513309,42.4118 39.4159292,42.4118 L35.7300885,42.4118 C35.6020028,42.4118 35.5033186,42.502235 35.5033186,42.6384 C35.5033186,42.6478 35.5033186,42.6478 35.5033186,42.676 C35.5033186,42.7042 35.5033186,42.7042 35.5033186,42.7136 C35.5033186,42.7606 35.5033186,42.7606 35.5033186,42.7888 C35.5033186,42.817 35.5033186,42.817 35.5033186,42.864 L35.5033186,49.5568 C35.5033186,49.6074424 35.5353079,49.6793982 35.5216495,49.6725709 C35.6206597,49.722062 35.7130778,49.741815 35.7133858,49.7471401 C36.0482566,49.5611902 36.8773765,49.4764133 37.6089182,49.6422831 C38.8503509,49.9237657 39.9612304,50.8214517 40.8020046,52.4675163 C42.9446756,56.6039196 43.894476,57.9255659 45.3226497,58.7667975 C45.2932566,58.7374127 45.2671859,58.7322 45.3584071,58.7322 C45.4639623,58.7322 45.4953156,58.7147864 45.5495645,58.638657 C45.613866,58.5100904 45.5941411,58.4410728 45.4663962,58.3759839 C44.2418061,57.6414373 43.2262966,56.2081817 41.1899573,52.3628412 C39.9149295,49.9293846 38.1902709,49.1349133 36.2800224,49.2542701 L35.8816372,49.2791622 L35.8816372,45.4351553 L36.1579941,45.3598065 C36.9165123,45.1529963 37.5090537,44.7467969 37.9003976,44.1599468 L38.2123894,43.6920913 L38.5243811,44.1599468 C39.0817851,44.9958167 39.9591036,45.497 40.920354,45.497 C41.9165794,45.497 42.7804355,45.0387568 43.3163268,44.2351468 L43.6356257,43.7563337 L43.9446659,44.2418312 C44.4044257,44.9641069 45.2651318,45.4218 46.1858407,45.4218 L46.6371681,45.4218 C47.5332884,45.4218 48.3365385,44.9853743 48.8914439,44.2225949 L49.2153633,43.7773314 L49.5110376,44.2418312 C49.9707973,44.9641069 50.8315035,45.4218 51.7522124,45.4218 L52.2035398,45.4218 C52.8249309,45.4218 53.4213463,45.1833012 53.915285,44.7600447 L54.534292,44.2296171 L54.534292,54.896 C54.534292,57.5343283 52.8620578,60.2824304 50.4280607,61.6168261 L50.4154548,61.6234291 C50.4270487,61.6176338 50.4022005,61.6520293 50.3634649,61.7333511 C50.3603118,61.7399706 50.3369385,61.791019 50.3151669,61.8377534 Z M31.8131676,37.4636822 L31.8142171,37.4635119 L31.8152701,37.4628613 C31.8145616,37.4631316 31.8138614,37.4634048 31.8131676,37.4636822 Z" id="Shape" stroke-width="0.75"></path>
            </g>
        </g>
    </g>
</svg>