<?xml version="1.0" encoding="UTF-8"?>
<svg width="65px" height="73px" viewBox="0 0 65 73" version="1.1" xmlns="http://www.w3.org/2000/svg" xmlns:xlink="http://www.w3.org/1999/xlink">
    <!-- Generator: Sketch 50.2 (55047) - http://www.bohemiancoding.com/sketch -->
    <title>noun_18817_cc</title>
    <desc>Created with Sketch.</desc>
    <defs></defs>
    <g id="Page-1" stroke="none" stroke-width="1" fill="none" fill-rule="evenodd">
        <g id="Register-2" transform="translate(-412.000000, -1245.000000)" fill="#1C67A2" fill-rule="nonzero">
            <g id="noun_18817_cc" transform="translate(412.000000, 1245.000000)">
                <path d="M33.0530555,8.64107125 L33.0530555,7.39606669 L40.106277,7.39606669 C42.1649879,7.39606669 43.8403355,5.73688239 43.8403355,3.69803334 C43.8403355,1.65918429 42.1649879,0 40.106277,0 L23.5104617,0 C21.4517509,0 19.7764033,1.65918429 19.7764033,3.69803334 C19.7764033,5.73688239 21.4517509,7.39606669 23.5104617,7.39606669 L30.5636832,7.39606669 L30.5636832,8.68873479 C13.5413555,9.68556022 0,23.7101462 0,40.8139613 C0,58.562056 14.5794237,73 32.5004149,73 C50.421406,73 65,58.562056 65,40.8139613 C65,23.2499465 50.7184711,8.93527034 33.0530555,8.64107125 Z M22.2657756,3.69803334 C22.2657756,3.01841699 22.8242248,2.46535556 23.5104617,2.46535556 L40.106277,2.46535556 C40.792514,2.46535556 41.3509632,3.01841699 41.3509632,3.69803334 C41.3509632,4.37764969 40.792514,4.93071113 40.106277,4.93071113 L23.5104617,4.93071113 C22.8242248,4.93071113 22.2657756,4.37764969 22.2657756,3.69803334 Z M32.4995851,70.5346444 C15.9518977,70.5346444 2.4885425,57.2020016 2.4885425,40.8139613 C2.4885425,24.4259211 15.9510679,11.0924565 32.4995851,11.0924565 C49.0481023,11.0924565 62.5106277,24.4259211 62.5106277,40.8139613 C62.5106277,57.2020016 49.0481023,70.5346444 32.4995851,70.5346444 Z" id="Shape"></path>
                <path d="M50,24.7243902 L48.2756098,23 L34.1658537,37.1097561 C33.5764228,36.7943089 32.9146341,36.599187 32.200813,36.599187 C29.8845528,36.599187 28,38.4837398 28,40.8 C28,43.1162602 29.8845528,45 32.200813,45 C34.5170732,45 36.401626,43.1162602 36.401626,40.8 C36.401626,40.0861789 36.2056911,39.4243902 35.8902439,38.8341463 L50,24.7243902 Z M32.200813,42.5609756 C31.2292683,42.5609756 30.4390244,41.7707317 30.4390244,40.8 C30.4390244,39.8284553 31.2292683,39.0382114 32.200813,39.0382114 C33.1723577,39.0382114 33.9626016,39.8284553 33.9626016,40.8 C33.9626016,41.7707317 33.1723577,42.5609756 32.200813,42.5609756 Z" id="Shape"></path>
            </g>
        </g>
    </g>
</svg>