<?xml version="1.0" encoding="utf-8"?>
<!-- Generator: Adobe Illustrator 19.0.0, SVG Export Plug-In . SVG Version: 6.00 Build 0)  -->
<svg version="1.1" id="Layer_1" xmlns="http://www.w3.org/2000/svg" xmlns:xlink="http://www.w3.org/1999/xlink" x="0px" y="0px"
	 width="555.5px" height="500px" viewBox="-550 550.6 555.5 500" enable-background="new -550 550.6 555.5 500"
	 xml:space="preserve">
<g>
	<g>
		<path fill="#757576" d="M-35.7,592.3h-473.2v20.8h473.2V592.3z M-76.8,550.6h-390.9v20.8h390.9V550.6z M-550,634v416.7H5.5V634
			H-550z M-309,912.2l-10.3-29.6h-46.8l-9.5,28.2h-33l49-136.9h37.1l47.4,132.7L-309,912.2z M-214.3,910.8h-47.8V774.5h46.8
			c47.4,0,72.3,27.5,72.3,67.9C-143,883-168.2,910.8-214.3,910.8z M-358.2,856.1h30.8l-15.4-47.4L-358.2,856.1z M-216,800.8h-12.2
			v83.7h12.2c24.1,0,39.1-12.6,39.1-41.9C-176.9,814-192.9,800.8-216,800.8z"/>
	</g>
</g>
</svg>
