<?xml version="1.0" encoding="utf-8"?>
<!-- Generator: Adobe Illustrator 19.0.0, SVG Export Plug-In . SVG Version: 6.00 Build 0)  -->
<svg version="1.1" id="Layer_1" xmlns="http://www.w3.org/2000/svg" xmlns:xlink="http://www.w3.org/1999/xlink" x="0px" y="0px"
	 width="653.8px" height="500px" viewBox="-472 551 653.8 500" enable-background="new -472 551 653.8 500" xml:space="preserve">
<g>
	<path fill="none" d="M-147.3,731.7c-51.3,0-93.1,41.7-93.1,93s41.7,93,93.1,93s93-41.7,93-93c0-24.9-9.7-48.2-27.3-65.8
		C-99.1,741.3-122.4,731.7-147.3,731.7z"/>
	<g>
		<path fill="#333333" d="M-66,576c1.1,1,2.3,2.2,3.3,3.3l55,66.4l7.5,9h11.7H121c9.3,0,18.1,3.7,24.7,10.3
			c6.6,6.6,10.3,15.4,10.3,24.7V991c0,9.3-3.7,18.1-10.3,24.7c-6.6,6.6-15.4,10.3-24.7,10.3h-533c-9.3,0-18.1-3.7-24.7-10.3
			S-447,1000.3-447,991V689.7c0-9.3,3.7-18.1,10.3-24.7c6.6-6.6,15.4-10.3,24.7-10.3h110.2h11.8l7.5-9.1l54.5-66.3
			c0.9-1,2.2-2.3,3.3-3.2H-66 M-60.7,551H-230c-6.6,0-17,12-17,12l-54.8,66.7H-412c-33,0-60,27-60,60V991c0,33,27,60,60,60h533
			c33,0,60-27,60-60V689.7c0-33-27-60-60-60H11.6L-43.7,563C-43.7,563-54.1,551-60.7,551L-60.7,551z"/>
	</g>
	<path fill="none" d="M-147.3,688.2c-36.5,0-70.7,14.2-96.5,40s-40,60.1-40,96.5c0,36.5,14.2,70.7,40,96.5s60.1,40,96.5,40
		c36.5,0,70.7-14.2,96.5-40s40-60.1,40-96.5c0-36.5-14.2-70.7-40-96.5S-110.8,688.2-147.3,688.2z M-147.3,937.8
		c-62.4,0-113.1-50.6-113.1-113s50.6-113,113.1-113s113,50.6,113,113C-34.3,887.1-84.9,937.8-147.3,937.8z"/>
	<path fill="none" d="M-50.8,921.2c-25.8,25.8-60.1,40-96.5,40c-36.5,0-70.7-14.2-96.5-40s-40-60.1-40-96.5
		c0-36.5,14.2-70.7,40-96.5s60.1-40,96.5-40c36.5,0,70.7,14.2,96.5,40s40,60.1,40,96.5C-10.8,861.2-25,895.4-50.8,921.2z"/>
	<path fill="none" d="M-147.3,711.7c-62.4,0-113.1,50.6-113.1,113s50.6,113,113.1,113s113-50.6,113-113
		C-34.2,762.3-84.9,711.7-147.3,711.7z M-147.3,917.8c-51.3,0-93.1-41.7-93.1-93s41.7-93,93.1-93c24.9,0,48.2,9.7,65.8,27.3
		s27.3,40.9,27.3,65.8C-54.3,876-96,917.8-147.3,917.8z"/>
</g>
<g>
	<g>
		<path fill="#333333" d="M-147.3,950.2c-69.3,0-125.6-56.3-125.6-125.5s56.3-125.5,125.6-125.5c69.2,0,125.5,56.3,125.5,125.5
			S-78.1,950.2-147.3,950.2z M-147.3,724.2c-55.5,0-100.6,45.1-100.6,100.5s45.1,100.5,100.6,100.5c55.4,0,100.5-45.1,100.5-100.5
			S-91.9,724.2-147.3,724.2z"/>
	</g>
</g>
</svg>
