<?xml version="1.0" encoding="utf-8"?>
<!-- Generator: Adobe Illustrator 19.0.0, SVG Export Plug-In . SVG Version: 6.00 Build 0)  -->
<svg version="1.1" id="Layer_1" xmlns="http://www.w3.org/2000/svg" xmlns:xlink="http://www.w3.org/1999/xlink" x="0px" y="0px"
	 width="550px" height="500px" viewBox="-524 551 550 500" style="enable-background:new -524 551 550 500;" xml:space="preserve">
<style type="text/css">
	.st0{fill:#333333;}
</style>
<g>
	<g>
		<path class="st0" d="M-65.6,576c36.8,0,66.7,28.9,66.7,64.5v204.7c0,35.6-29.9,64.5-66.7,64.5h-32h-33.1l9.1,31.9l15.1,52.9
			l-126.9-81l-6.1-3.9h-7.3h-185.4c-18,0-34.8-6.8-47.4-19.1c-12.4-12.1-19.3-28.3-19.3-45.4V640.5c0-35.6,29.9-64.5,66.7-64.5
			H-65.6 M-65.6,551h-366.7c-50.6,0-91.7,40.1-91.7,89.5v204.6c0,49.5,41,89.5,91.7,89.5h185.4L-64.4,1051l-33.2-116.3h32
			c50.6,0,91.7-40.1,91.7-89.5V640.5C26.1,591.1-15,551-65.6,551L-65.6,551z"/>
	</g>
</g>
</svg>
