<?xml version="1.0" encoding="utf-8"?>
<!-- Generator: Adobe Illustrator 19.0.0, SVG Export Plug-In . SVG Version: 6.00 Build 0)  -->
<svg version="1.1" id="Layer_1" xmlns="http://www.w3.org/2000/svg" xmlns:xlink="http://www.w3.org/1999/xlink" x="0px" y="0px"
	 width="500px" height="590.9px" viewBox="-3097 1973.1 500 590.9" enable-background="new -3097 1973.1 500 590.9"
	 xml:space="preserve">
<g>
	<polygon fill="none" points="-2711.1,1999.2 -2711.1,2088.1 -2622.1,2088.1 	"/>
	<polygon fill="none" points="-2729.2,2106.2 -2729.2,1991.2 -2942.3,1991.2 -2942.3,2455.1 -2615.1,2455.1 -2615.1,2106.2 	"/>
	<g>
		<polygon fill="none" points="-2729.2,2106.2 -2729.2,1991.2 -2942.3,1991.2 -2942.3,2455.1 -2615.1,2455.1 -2615.1,2106.2 		"/>
		<polygon fill="none" points="-2711.1,1999.2 -2711.1,2088.1 -2622.1,2088.1 		"/>
		<polygon fill="none" points="-2711.7,1973.1 -2960.4,1973.1 -2960.4,2473.2 -2597,2473.2 -2597,2087.6 		"/>
		<polygon fill="#757575" points="-2711.1,2007.2 -2711.1,2088.1 -2630.1,2088.1 		"/>
		<polygon fill="#757575" points="-2737.2,1999.2 -2934.3,1999.2 -2934.3,2063.6 -2847.8,2063.6 -2733.3,2179 -2733.3,2447.1 
			-2623.1,2447.1 -2623.1,2114.2 -2737.2,2114.2 		"/>
	</g>
</g>
<g>
	<polygon fill="none" points="-2847.7,2090.1 -2847.7,2179 -2758.6,2179 	"/>
	<polygon fill="none" points="-2865.8,2197.1 -2865.8,2082 -3078.9,2082 -3078.9,2545.9 -2751.7,2545.9 -2751.7,2197.1 	"/>
	<g>
		<polygon fill="none" points="-2865.8,2197.1 -2865.8,2082 -3078.9,2082 -3078.9,2545.9 -2751.7,2545.9 -2751.7,2197.1 		"/>
		<polygon fill="none" points="-2847.7,2090.1 -2847.7,2179 -2758.6,2179 		"/>
		<polygon fill="none" points="-2848.3,2063.9 -3097,2063.9 -3097,2564 -2733.6,2564 -2733.6,2178.4 		"/>
		<polygon fill="#757575" points="-2848.7,2098.1 -2847.7,2179 -2767.6,2179 		"/>
		<polygon fill="#757575" points="-2874.8,2090 -3070.9,2090 -3070.9,2537.9 -2759.7,2537.9 -2759.7,2205.1 -2874.8,2205.1 		"/>
	</g>
</g>
</svg>
