<?xml version="1.0" encoding="utf-8"?>
<!-- Generator: Adobe Illustrator 19.0.0, SVG Export Plug-In . SVG Version: 6.00 Build 0)  -->
<svg version="1.1" id="Layer_1" xmlns="http://www.w3.org/2000/svg" xmlns:xlink="http://www.w3.org/1999/xlink" x="0px" y="0px"
	 width="500px" height="590.9px" viewBox="-454 618.1 500 590.9" enable-background="new -454 618.1 500 590.9"
	 xml:space="preserve">
<polygon fill="#333333" points="31.5,751.2 -86.2,751.2 -86.2,626.3 -68.1,626.3 -68.1,733.1 31.5,733.1 "/>
<polygon fill="#333333" points="-68.7,618.1 -317.4,618.1 -317.4,709.9 -299.3,709.9 -299.3,636.2 -76.2,636.2 27.9,740 27.9,1100 
	-90,1100 -90,1118.2 46,1118.2 46,732.5 "/>
<path fill="#333333" d="M-212.8,727l104.1,103.8v360H-436V727H-212.8 M-205.3,708.9H-454V1209h363.4V823.4L-205.3,708.9
	L-205.3,708.9z"/>
<polygon fill="#333333" points="-105.1,842.1 -222.8,842.1 -222.8,717.1 -204.7,717.1 -204.7,824 -105.1,824 "/>
</svg>
