<?xml version="1.0" encoding="utf-8"?>
<!-- Generator: Adobe Illustrator 16.0.0, SVG Export Plug-In . SVG Version: 6.00 Build 0)  -->
<!DOCTYPE svg PUBLIC "-//W3C//DTD SVG 1.1//EN" "http://www.w3.org/Graphics/SVG/1.1/DTD/svg11.dtd">
<svg version="1.1" id="Layer_1" xmlns="http://www.w3.org/2000/svg" xmlns:xlink="http://www.w3.org/1999/xlink" x="0px" y="0px"
	 width="1317px" height="1024px" viewBox="0 0 1317 1024" enable-background="new 0 0 1317 1024" xml:space="preserve">
<g id="icomoon-ignore">
</g>
<path fill="#DC4E41" d="M821.143,521.714c0,79.238-16.57,149.81-49.714,211.714c-33.143,61.905-80.38,110.286-141.714,145.144
	c-61.333,34.857-131.619,52.286-210.856,52.286c-56.763,0-111.048-11.048-162.857-33.144
	c-51.809-22.095-96.381-51.81-133.714-89.143c-37.333-37.334-67.048-81.905-89.143-133.714C11.049,623.048,0.001,568.762,0.001,512
	s11.048-111.048,33.143-162.857c22.095-51.81,51.81-96.381,89.143-133.714c37.333-37.333,81.905-67.048,133.714-89.143
	c51.81-22.096,106.095-33.143,162.857-33.143c108.952,0,202.476,36.571,280.57,109.714L585.715,312
	c-44.571-43.047-100.19-64.571-166.856-64.571c-46.857,0-90.191,11.81-130,35.429c-39.809,23.62-71.333,55.715-94.571,96.286
	c-23.238,40.571-34.857,84.857-34.857,132.857s11.619,92.286,34.857,132.857s54.762,72.666,94.571,96.285
	c39.81,23.62,83.143,35.43,130,35.43c31.619,0,60.667-4.381,87.143-13.144c26.477-8.762,48.286-19.714,65.429-32.856
	c17.144-13.143,32.096-28.095,44.857-44.857c12.762-16.762,22.095-32.571,28-47.429s10.001-28.953,12.286-42.286H418.859v-144
	h395.429c4.571,24,6.856,47.238,6.856,69.714L821.143,521.714z M1316.571,452v120h-119.429v119.429h-120V572h-119.43V452h119.43
	V332.571h120V452H1316.571z"/>
</svg>
