<?xml version="1.0" encoding="utf-8"?>
<!-- Generator: Adobe Illustrator 19.0.0, SVG Export Plug-In . SVG Version: 6.00 Build 0)  -->
<svg version="1.1" id="Layer_1" xmlns="http://www.w3.org/2000/svg" xmlns:xlink="http://www.w3.org/1999/xlink" x="0px" y="0px"
	 width="520.1px" height="500px" viewBox="-549 551 520.1 500" enable-background="new -549 551 520.1 500" xml:space="preserve">
<g>
	<g>
		<path fill-rule="evenodd" clip-rule="evenodd" fill="#333333" d="M-499.9,749.1c-27.1,0-49.1,22.4-49.1,50c0,27.6,22,50,49.1,50
			c27.1,0,49.1-22.4,49.1-50C-450.8,771.5-472.8,749.1-499.9,749.1z M-287.9,749.1c-27.1,0-49.1,22.4-49.1,50c0,27.6,22,50,49.1,50
			c27.1,0,49.1-22.4,49.1-50C-238.9,771.5-260.8,749.1-287.9,749.1z M-78,749.1c-27.2,0-49.3,22.4-49.3,50c0,27.6,22.1,50,49.3,50
			c27.2,0,49.3-22.4,49.3-50C-28.7,771.5-50.8,749.1-78,749.1z"/>
	</g>
</g>
</svg>
