<svg xmlns="http://www.w3.org/2000/svg" width="19" height="26" viewBox="0 0 19 26">
    <path fill="#E2E2E2" fill-rule="evenodd" d="M9.5 11.991a2.37 2.37 0 0 1-2.375-2.366A2.37 2.37 0 0 1 9.5 7.259a2.37 2.37 0 0 1 2.375 2.366A2.37 2.37 0 0 1 9.5 11.991zm0-6.31a3.951 3.951 0 0 0-3.958 3.944A3.951 3.951 0 0 0 9.5 13.569a3.951 3.951 0 0 0 3.958-3.944A3.951 3.951 0 0 0 9.5 5.681zm0 17.354c-1.317.007-7.917-10.112-7.917-13.41 0-4.356 3.545-7.888 7.917-7.888s7.917 3.532 7.917 7.888c0 3.254-6.621 13.417-7.917 13.41zM9.5.159C4.254.16 0 4.398 0 9.625c0 3.958 7.92 15.785 9.5 15.776C11.055 25.41 19 13.53 19 9.625 19 4.398 14.746.159 9.5.159z"/>
</svg>
