<?xml version="1.0" encoding="utf-8"?>
<!-- Generated by IcoMoon.io -->
<!DOCTYPE svg PUBLIC "-//W3C//DTD SVG 1.1//EN" "http://www.w3.org/Graphics/SVG/1.1/DTD/svg11.dtd">
<svg version="1.1" xmlns="http://www.w3.org/2000/svg" xmlns:xlink="http://www.w3.org/1999/xlink" width="512" height="512" viewBox="0 0 512 512">
<g id="icomoon-ignore">
</g>
<path d="M128 32h256v64h-256v-64z"></path>
<path d="M480 128h-448c-17.6 0-32 14.4-32 32v160c0 17.6 14.397 32 32 32h96v128h256v-128h96c17.6 0 32-14.4 32-32v-160c0-17.6-14.4-32-32-32zM64 224c-17.673 0-32-14.327-32-32s14.327-32 32-32 32 14.327 32 32-14.326 32-32 32zM352 448h-192v-160h192v160z"></path>
</svg>
