<?xml version="1.0" encoding="utf-8"?>
<!-- Generator: Adobe Illustrator 19.0.0, SVG Export Plug-In . SVG Version: 6.00 Build 0)  -->
<svg version="1.1" id="Layer_1" xmlns="http://www.w3.org/2000/svg" xmlns:xlink="http://www.w3.org/1999/xlink" x="0px" y="0px"
	 width="526.2px" height="500px" viewBox="-549 551 526.2 500" enable-background="new -549 551 526.2 500" xml:space="preserve">
<path fill="#757576" d="M-100.8,551c-43,0-78,34.5-78,76.9c0,7.4,1.1,14.5,3.1,21.2l-227.9,94.3c-13.5-23-38.6-38.6-67.5-38.6
	c-43,0-77.9,34.5-77.9,76.9c0,42.5,34.9,76.9,77.9,76.9c22.6,0,42.8-9.5,57.1-24.6l146.8,104.1c-5.7,10.7-9,22.9-9,35.9
	c0,42.5,34.9,76.9,78,76.9c43,0,78-34.4,78-76.9c0-42.5-34.9-76.9-78-76.9c-22.9,0-43.4,9.8-57.7,25.3l-146.6-104
	c6-10.9,9.5-23.4,9.5-36.7c0-7.2-1.1-14-2.9-20.6l228.1-94.3c13.5,22.7,38.5,38,67.2,38c43,0,78-34.4,78-76.9
	C-22.8,585.5-57.7,551-100.8,551z"/>
</svg>
