<?xml version="1.0" encoding="utf-8"?>
<!-- Generator: Adobe Illustrator 19.0.0, SVG Export Plug-In . SVG Version: 6.00 Build 0)  -->
<svg version="1.1" id="Layer_1" xmlns="http://www.w3.org/2000/svg" xmlns:xlink="http://www.w3.org/1999/xlink" x="0px" y="0px"
	 width="793.9px" height="500.3px" viewBox="-472 550.9 793.9 500.3" style="enable-background:new -472 550.9 793.9 500.3;"
	 xml:space="preserve">
<style type="text/css">
	.st0{fill:#333333;}
</style>
<path class="st0" d="M27,575.9c9.3,0,18.1,3.7,24.7,10.3S62,601.6,62,610.9v380.3c0,9.3-3.7,18.1-10.3,24.7s-15.4,10.3-24.7,10.3
	h-439c-9.3,0-18.1-3.7-24.7-10.3s-10.3-15.4-10.3-24.7V610.9c0-9.3,3.7-18.1,10.3-24.7s15.4-10.3,24.7-10.3H27 M27,550.9h-439
	c-33,0-60,27-60,60v380.3c0,33,27,60,60,60H27c33,0,60-27,60-60V610.9C87,577.9,60,550.9,27,550.9L27,550.9z"/>
<path class="st0" d="M139.9,771.2c0.8-0.6,1.6-1.3,2.5-2l154.5-114.8v293.4l-154.7-115l-0.3-0.2c-0.6-0.5-1.3-1.1-2-1.6V771.2
	 M114.9,764.6v72c0,6.6,6.8,11.8,12,16l183,136c6.6,0,12-5.4,12-12v-351c0-6.6-5.4-12-12-12l-183,136
	C121.9,753.8,114.9,758,114.9,764.6L114.9,764.6z"/>
</svg>
