<?xml version="1.0" encoding="utf-8"?>
<!-- Generator: Adobe Illustrator 19.0.0, SVG Export Plug-In . SVG Version: 6.00 Build 0)  -->
<svg version="1.1" id="Layer_1" xmlns="http://www.w3.org/2000/svg" xmlns:xlink="http://www.w3.org/1999/xlink" x="0px" y="0px"
	 width="485.3px" height="500px" viewBox="-549 551.4 485.3 500" enable-background="new -549 551.4 485.3 500"
	 xml:space="preserve">
<g>
	<g>
		<path fill="#5ABA4A" d="M-134.5,624c-45.6-46.8-106.3-72.6-170.9-72.6c-133.1,0-241.6,111.1-241.6,247.8
			c0,43.7,11.1,86.3,32.2,123.9l-34.3,128.4l128.1-34.4c35.3,19.7,75,30.1,115.5,30.1h0.1c133.1,0,241.6-111.1,241.6-247.8
			C-63.8,733.1-88.9,670.8-134.5,624z M-305.4,1005.2L-305.4,1005.2c-36.1,0-71.4-9.9-102.3-28.7l-7.3-4.5l-76,20.5l20.3-76
			l-4.8-7.8c-20.1-32.8-30.8-70.7-30.7-109.6c0-113.5,90.2-205.9,200.9-205.9c53.6,0,104,21.5,142,60.4s58.8,90.6,58.8,145.7
			C-104.6,912.8-194.7,1005.2-305.4,1005.2z M-195.3,851c-6.1-3.1-35.7-18.1-41.2-20.1c-5.5-2.1-9.6-3.1-13.6,3.1
			c-4,6.2-15.6,20.1-19.1,24.2c-3.5,4.1-7.1,4.7-13,1.6c-6.1-3.1-25.5-9.6-48.6-30.8c-17.9-16.4-30-36.7-33.6-42.9
			c-3.5-6.2-0.4-9.6,2.7-12.7c2.8-2.8,6.1-7.3,9.1-10.8c3-3.6,4-6.2,6.1-10.3c2-4.1,1-7.7-0.5-10.8c-1.5-3.1-13.6-33.6-18.6-46
			c-4.9-12.1-9.9-10.5-13.6-10.7c-3.5-0.2-7.5-0.2-11.6-0.2c-4,0-10.6,1.6-16.1,7.7c-5.5,6.2-21.1,21.1-21.1,51.6s21.7,59.9,24.6,64
			c3,4.1,42.6,66.7,103.1,93.5c14.4,6.3,25.6,10.2,34.4,13c14.5,4.7,27.6,4,38,2.5c11.6-1.7,35.7-15,40.8-29.5
			c5.1-14.4,5.1-26.8,3.5-29.4C-185.2,855.6-189.2,854-195.3,851z"/>
	</g>
</g>
</svg>
