<?xml version="1.0" encoding="utf-8"?>
<!-- Generator: Adobe Illustrator 19.0.0, SVG Export Plug-In . SVG Version: 6.00 Build 0)  -->
<svg version="1.1" id="Layer_1" xmlns="http://www.w3.org/2000/svg" xmlns:xlink="http://www.w3.org/1999/xlink" x="0px" y="0px"
	 width="590.4px" height="500px" viewBox="-593.9 550.8 590.4 500" enable-background="new -593.9 550.8 590.4 500"
	 xml:space="preserve">
<path fill="#0065a4" d="M-3.6,609.9c-21.7,10-45.1,16.8-69.6,19.9c25-15.6,44.3-40.3,53.3-69.9c-23.4,14.4-49.3,25-76.9,30.6
	c-22.1-24.6-53.6-39.8-88.4-39.8c-66.9,0-121.1,56.5-121.1,126.2c0,9.9,1.1,19.5,3.1,28.7c-100.7-5.2-190-55.4-249.7-131.8
	c-10.4,18.7-16.4,40.3-16.4,63.5c0,43.8,21.4,82.5,53.9,105c-19.9-0.6-38.6-6.4-54.8-15.7c0,0.6,0,1,0,1.6
	c0,61.2,41.8,112.2,97.2,123.8c-10.1,2.9-20.9,4.4-31.9,4.4c-7.8,0-15.4-0.8-22.8-2.3c15.5,50.2,60.2,86.7,113.2,87.7
	c-41.5,33.9-93.7,54-150.5,54c-9.8,0-19.4-0.6-28.9-1.7c53.7,35.8,117.3,56.7,185.7,56.7c222.8,0,344.7-192.3,344.7-359.2
	c0-5.5-0.1-11-0.4-16.3C-40.3,657.5-19.8,635.2-3.6,609.9z"/>
</svg>
